<svg version="1.2" xmlns="http://www.w3.org/2000/svg" viewBox="0 0 1419 530" width="1419" height="530">
	<style>
		.s0 { fill: #e19e96 } 
		.s1 { fill: #e19e95 } 
	</style>
	<g id="&lt;Group&gt;">
		<path id="&lt;Path&gt;" class="s0" d="m325.63 264.36l60.3-92.84-36.95-31.87-129.22-0.11-36.83 31.65 142.59 214.49 151.57-226.73-102.4-88.31-180.51-0.17-102.56 88.12 192.48 282.25-0.07 69.1-243.94-358.43 134.2-115.32 220.34 0.2 133.98 115.56-203.2 303.99-194.01-291.84 68.48-58.84 169.04 0.16 68.19 58.81-111.07 172.66-0.47-0.73z"/>
		<path id="VECTRA" class="s1" aria-label="VECTRA"  d="m632.8 320.3l-38.7-103.2-26.2 3.6 53.1 135.5h22.2l53.6-137h-26.2zm99.2 35.9l95.9 0.1-4.2-20.4h-65.7v-38.5h49l-4.2-20.7-44.8-0.1 0.1-36.9 59.9 0.1-4-20.6h-81.9zm225.8-130.9q-8.1-4.4-18.6-6.6-10.5-2.3-17.7-2.3-19.8 0-34.9 9.3-15 9-23.2 25.4-8.1 16.3-8.1 37.2-0.1 20.2 7.4 36.3 7.4 16 22.1 25.2 14.8 9.3 35.5 9.3 8.9 0.1 19.8-2.4 11.1-2.4 18.8-6.4l-9.9-19.3q-15.1 6.2-30.1 6.2-11.3 0-19.5-6.5-8.3-6.7-12.7-17.7-4.2-11.3-4.2-24.8 0-15.2 4.8-26.4 5.1-11.3 13.8-17.4 8.7-6 19.5-6 6.9 0 11.5 1 4.7 0.8 12.5 3.3l5.1 1.4zm137.5 14.6l-4.2-20.5-110.9-0.1v20.5h41.7l-0.1 116.6h26.4l0.1-116.5zm35.3-20.6l-0.1 137.1h26l0.1-52 24.6 0.1 29 52h27.8l-33.6-58.9q10.7-5.2 16.9-14.5 6.5-9.2 6.5-21.5 0-20.6-15.3-31.3-15.1-10.9-38.9-10.9zm42.1 21.8q27.4 0 27.4 21.6 0 10.5-7.5 15.5-7.2 4.8-19.5 4.8h-16.6l0.1-41.9zm161.1-21.6l-22.2-0.1-53.5 137.1h26.2l12.1-32.3 52.1 0.1 12.2 34.3 26.2-3.6zm-11.7 35.8l18.3 47.8h-36.3z"/>
	</g>
</svg>